<svg width="32" height="32" viewBox="0 0 32 32" fill="none" xmlns="http://www.w3.org/2000/svg">
<g clip-path="url(#clip0_4427_5220)">
<path opacity="0.2" d="M26.7207 5.37301C26.8698 5.32954 27.0269 5.32137 27.1796 5.34914C27.3324 5.37691 27.4765 5.43986 27.6007 5.53301C27.7249 5.62615 27.8257 5.74694 27.8952 5.88579C27.9646 6.02465 28.0007 6.17776 28.0007 6.33301V23.6663C28.0007 23.8216 27.9646 23.9747 27.8952 24.1135C27.8257 24.2524 27.7249 24.3732 27.6007 24.4663C27.4765 24.5595 27.3324 24.6224 27.1796 24.6502C27.0269 24.678 26.8698 24.6698 26.7207 24.6263L15 21.2078V8.79155L26.7207 5.37301Z" fill="#D14D72"/>
<path d="M28.0007 6.33301V23.6663C28.0007 23.8216 27.9646 23.9747 27.8952 24.1135C27.8257 24.2524 27.7249 24.3732 27.6007 24.4663C27.4765 24.5595 27.3324 24.6224 27.1796 24.6502C27.0269 24.678 26.8698 24.6698 26.7207 24.6263L4.72073 18.2097C4.51302 18.1491 4.33055 18.0228 4.20073 17.8497C4.07091 17.6766 4.00073 17.466 4.00073 17.2497V12.7497C4.00073 12.5333 4.07091 12.3228 4.20073 12.1497C4.33055 11.9766 4.51302 11.8503 4.72073 11.7897L26.7207 5.37301C26.8698 5.32954 27.0269 5.32137 27.1796 5.34914C27.3324 5.37691 27.4765 5.43986 27.6007 5.53301C27.7249 5.62615 27.8257 5.74694 27.8952 5.88579C27.9646 6.02465 28.0007 6.17776 28.0007 6.33301Z" fill="#D14D72" stroke="#D14D72" stroke-width="2" stroke-linecap="round" stroke-linejoin="round"/>
<path d="M9 19.4582V24.0001C9 24.2653 9.10536 24.5197 9.29289 24.7072C9.48043 24.8948 9.73478 25.0001 10 25.0001H14C14.2652 25.0001 14.5196 24.8948 14.7071 24.7072C14.8946 24.5197 15 24.2653 15 24.0001V8.79199" fill="#D14D72"/>
<path d="M9 19.4582V24.0001C9 24.2653 9.10536 24.5197 9.29289 24.7072C9.48043 24.8948 9.73478 25.0001 10 25.0001H14C14.2652 25.0001 14.5196 24.8948 14.7071 24.7072C14.8946 24.5197 15 24.2653 15 24.0001V8.79199" stroke="#D14D72" stroke-width="2" stroke-linecap="round" stroke-linejoin="round"/>
</g>
<defs>
<clipPath id="clip0_4427_5220">
<rect width="32" height="32" fill="white" transform="matrix(-1 0 0 1 32 0)"/>
</clipPath>
</defs>
</svg>
