<svg width="32" height="32" viewBox="0 0 32 32" fill="none" xmlns="http://www.w3.org/2000/svg">
<g clip-path="url(#clip0_4427_5198)">
<path opacity="0.2" d="M24.9996 15.001L22.2022 7.54139C22.1406 7.37707 22.0368 7.23186 21.9013 7.12035C21.7659 7.00884 21.6034 6.93495 21.4303 6.9061L3.99957 4.00098L6.90472 21.4317C6.93357 21.6048 7.00745 21.7672 7.11896 21.9027C7.23047 22.0382 7.37567 22.142 7.53997 22.2036L14.9996 25.001L24.9996 15.001ZM12 14.5002C12 14.0058 12.1466 13.5224 12.4213 13.1113C12.696 12.7002 13.0865 12.3798 13.5433 12.1905C14.0001 12.0013 14.5028 11.9518 14.9877 12.0483C15.4727 12.1447 15.9181 12.3828 16.2678 12.7325C16.6174 13.0821 16.8555 13.5276 16.952 14.0125C17.0484 14.4975 16.9989 15.0001 16.8097 15.457C16.6205 15.9138 16.3 16.3042 15.8889 16.5789C15.4778 16.8536 14.9945 17.0002 14.5 17.0002C14.1717 17.0002 13.8466 16.9356 13.5433 16.81C13.24 16.6843 12.9644 16.5002 12.7322 16.268C12.5001 16.0359 12.3159 15.7603 12.1903 15.457C12.0647 15.1536 12 14.8286 12 14.5002Z" fill="#D14D72"/>
<path d="M12 14.5C12 15.8807 13.1193 17 14.5 17C15.8807 17 17 15.8807 17 14.5C17 13.1193 15.8807 12 14.5 12C13.1193 12 12 13.1193 12 14.5Z" fill="#D14D72" stroke="#D14D72" stroke-width="2" stroke-linecap="round" stroke-linejoin="round"/>
<path d="M3.99958 4.00098L12.7322 12.7325" stroke="#D14D72" stroke-width="2" stroke-linecap="round" stroke-linejoin="round"/>
<path d="M3.99964 4.00098L6.90476 21.4317C6.93361 21.6048 7.0075 21.7672 7.11901 21.9027C7.23052 22.0382 7.37572 22.142 7.54003 22.2036L14.9996 25.001L24.9996 15.001L22.2023 7.54137C22.1407 7.37706 22.0369 7.23186 21.9014 7.12035C21.7659 7.00884 21.6034 6.93495 21.4303 6.9061L3.99964 4.00098Z" fill="#D14D72" stroke="#D14D72" stroke-width="2" stroke-linecap="round" stroke-linejoin="round"/>
<path d="M14.9995 25.001L18.2924 28.2939C18.3853 28.3867 18.4955 28.4604 18.6169 28.5106C18.7382 28.5609 18.8682 28.5868 18.9995 28.5868C19.1309 28.5868 19.2609 28.5609 19.3822 28.5106C19.5035 28.4604 19.6138 28.3867 19.7066 28.2939L28.2924 19.7081C28.48 19.5205 28.5853 19.2662 28.5853 19.001C28.5853 18.7358 28.48 18.4814 28.2924 18.2939L24.9995 15.001" fill="#D14D72"/>
<path d="M14.9995 25.001L18.2924 28.2939C18.3853 28.3867 18.4955 28.4604 18.6169 28.5106C18.7382 28.5609 18.8682 28.5868 18.9995 28.5868C19.1309 28.5868 19.2609 28.5609 19.3822 28.5106C19.5035 28.4604 19.6138 28.3867 19.7066 28.2939L28.2924 19.7081C28.48 19.5205 28.5853 19.2662 28.5853 19.001C28.5853 18.7358 28.48 18.4814 28.2924 18.2939L24.9995 15.001" stroke="#D14D72" stroke-width="2" stroke-linecap="round" stroke-linejoin="round"/>
</g>
<defs>
<clipPath id="clip0_4427_5198">
<rect width="32" height="32" fill="white" transform="translate(32) rotate(90)"/>
</clipPath>
</defs>
</svg>
