<svg width="28" height="28" viewBox="0 0 28 28" fill="none" xmlns="http://www.w3.org/2000/svg">
<path d="M12.9241 4.51296C13.3643 3.62116 14.636 3.62116 15.0762 4.51296L17.3262 9.07125C17.5009 9.42507 17.8383 9.67042 18.2287 9.72748L23.2623 10.4632C24.2462 10.607 24.6383 11.8164 23.926 12.5102L20.2856 16.0559C20.0026 16.3316 19.8734 16.729 19.9402 17.1184L20.7991 22.1262C20.9672 23.1065 19.9382 23.8541 19.0578 23.3911L14.5587 21.0251C14.209 20.8412 13.7913 20.8412 13.4416 21.0251L8.94252 23.3911C8.06217 23.8541 7.03311 23.1065 7.20125 22.1262L8.06013 17.1184C8.12693 16.729 7.99773 16.3316 7.71468 16.0559L4.07431 12.5102C3.362 11.8164 3.75414 10.607 4.73804 10.4632L9.7716 9.72748C10.162 9.67042 10.4995 9.42507 10.6741 9.07125L12.9241 4.51296Z" fill="#FFAA00"/>
</svg>
